<?xml version="1.0" encoding="utf-8"?>
<!-- Generator: Adobe Illustrator 16.0.0, SVG Export Plug-In . SVG Version: 6.00 Build 0)  -->
<!DOCTYPE svg PUBLIC "-//W3C//DTD SVG 1.1//EN" "http://www.w3.org/Graphics/SVG/1.1/DTD/svg11.dtd">
<svg version="1.1" id="Layer_1" xmlns="http://www.w3.org/2000/svg" xmlns:xlink="http://www.w3.org/1999/xlink" x="0px" y="0px"
	 width="341px" height="46px" viewBox="0 0 341 46" enable-background="new 0 0 341 46" xml:space="preserve">
<g>
	<path fill="#FFC438" d="M3.476,0.489h334.047c1.655,0,2.978,1.219,2.978,2.727v39.563c0,1.514-1.322,2.731-2.978,2.731H3.476
		c-1.646,0-2.978-1.218-2.978-2.731V3.216C0.499,1.708,1.83,0.489,3.476,0.489L3.476,0.489z M3.476,0.489"/>
	<path fill="#EC9309" d="M337.523,46H3.476C1.56,46,0,44.556,0,42.779V3.216C0,1.442,1.56,0,3.476,0h334.047
		C339.441,0,341,1.442,341,3.216v39.563C341,44.556,339.441,46,337.523,46z M3.476,0.979c-1.367,0-2.479,1.004-2.479,2.237v39.563
		c0,1.237,1.112,2.242,2.479,2.242h334.047c1.367,0,2.479-1.005,2.479-2.242V3.216c0-1.233-1.112-2.237-2.479-2.237H3.476z"/>
</g>
<g>
	<g>
		<g>
			<g>
				<path fill="#009BDE" d="M236.59,12.642h-7.136c-0.488,0-0.904,0.355-0.979,0.837l-2.887,18.296
					c-0.057,0.359,0.223,0.688,0.588,0.688h3.661c0.341,0,0.633-0.25,0.686-0.586l0.819-5.188c0.075-0.482,0.49-0.836,0.978-0.836
					h2.259c4.699,0,7.412-2.275,8.121-6.784c0.318-1.971,0.013-3.52-0.91-4.604C240.774,13.272,238.976,12.642,236.59,12.642z
					 M237.413,19.324c-0.391,2.562-2.347,2.562-4.238,2.562h-1.076l0.754-4.782c0.047-0.289,0.295-0.501,0.588-0.501h0.494
					c1.287,0,2.505,0,3.131,0.733C237.441,17.774,237.555,18.424,237.413,19.324z"/>
				<path fill="#002F87" d="M185.697,12.642h-7.136c-0.488,0-0.902,0.355-0.979,0.837l-2.885,18.296
					c-0.058,0.359,0.222,0.688,0.587,0.688h3.407c0.488,0,0.903-0.355,0.979-0.838l0.778-4.936c0.076-0.482,0.491-0.836,0.979-0.836
					h2.258c4.699,0,7.412-2.275,8.121-6.784c0.318-1.971,0.014-3.52-0.91-4.604C189.884,13.272,188.083,12.642,185.697,12.642z
					 M186.521,19.324c-0.391,2.562-2.347,2.562-4.238,2.562h-1.076l0.755-4.782c0.046-0.289,0.295-0.501,0.587-0.501h0.494
					c1.288,0,2.505,0,3.131,0.733C186.548,17.774,186.662,18.424,186.521,19.324z"/>
				<path fill="#002F87" d="M207.024,19.242h-3.417c-0.293,0-0.542,0.212-0.588,0.502l-0.15,0.956l-0.237-0.347
					c-0.742-1.074-2.39-1.433-4.037-1.433c-3.774,0-6.999,2.86-7.627,6.872c-0.326,2.002,0.138,3.914,1.273,5.25
					c1.042,1.227,2.529,1.736,4.303,1.736c3.041,0,4.73-1.955,4.73-1.955l-0.153,0.949c-0.058,0.361,0.221,0.689,0.587,0.689h3.077
					c0.488,0,0.903-0.355,0.979-0.838l1.848-11.695C207.669,19.568,207.389,19.242,207.024,19.242z M202.263,25.893
					c-0.33,1.951-1.879,3.262-3.857,3.262c-0.99,0-1.783-0.318-2.294-0.922c-0.505-0.598-0.696-1.451-0.534-2.4
					c0.307-1.934,1.882-3.287,3.828-3.287c0.971,0,1.758,0.323,2.277,0.93C202.206,24.09,202.413,24.947,202.263,25.893z"/>
				<path fill="#009BDE" d="M257.917,19.242h-3.418c-0.292,0-0.541,0.212-0.587,0.502l-0.15,0.956l-0.239-0.347
					c-0.74-1.074-2.389-1.433-4.035-1.433c-3.775,0-7,2.86-7.627,6.872c-0.326,2.002,0.138,3.914,1.272,5.25
					c1.042,1.227,2.53,1.736,4.304,1.736c3.041,0,4.729-1.955,4.729-1.955l-0.152,0.949c-0.058,0.361,0.222,0.689,0.587,0.689h3.076
					c0.488,0,0.904-0.355,0.979-0.838l1.848-11.695C258.562,19.568,258.282,19.242,257.917,19.242z M253.155,25.893
					c-0.33,1.951-1.88,3.262-3.856,3.262c-0.991,0-1.784-0.318-2.295-0.922c-0.505-0.598-0.696-1.451-0.536-2.4
					c0.309-1.934,1.883-3.287,3.83-3.287c0.971,0,1.758,0.323,2.277,0.93C253.099,24.09,253.305,24.947,253.155,25.893z"/>
				<path fill="#002F87" d="M225.223,19.242h-3.435c-0.33,0-0.636,0.163-0.82,0.435l-4.737,6.978l-2.008-6.705
					c-0.126-0.42-0.513-0.707-0.949-0.707h-3.377c-0.407,0-0.694,0.4-0.563,0.786l3.782,11.101l-3.558,5.02
					c-0.279,0.393,0.003,0.938,0.486,0.938h3.432c0.324,0,0.629-0.16,0.814-0.426l11.421-16.484
					C225.984,19.781,225.702,19.242,225.223,19.242z"/>
				<path fill="#009BDE" d="M261.943,13.144l-2.929,18.631c-0.057,0.361,0.223,0.688,0.588,0.688h2.945
					c0.488,0,0.904-0.355,0.979-0.838l2.888-18.296c0.057-0.361-0.223-0.688-0.588-0.688h-3.297
					C262.238,12.642,261.989,12.855,261.943,13.144z"/>
			</g>
		</g>
	</g>
</g>
<g opacity="0.9">
	<path fill="#202633" d="M80.41,21.213c-0.073-0.282-0.173-0.541-0.3-0.777c-0.128-0.236-0.291-0.44-0.491-0.613
		c-0.2-0.172-0.435-0.307-0.703-0.402s-0.579-0.143-0.934-0.143c-0.518,0-0.966,0.104-1.342,0.313
		c-0.378,0.209-0.685,0.489-0.921,0.839c-0.236,0.35-0.411,0.748-0.525,1.193c-0.113,0.446-0.17,0.9-0.17,1.364
		s0.057,0.919,0.17,1.364c0.114,0.445,0.289,0.842,0.525,1.191c0.236,0.352,0.543,0.631,0.921,0.84
		c0.376,0.209,0.825,0.314,1.342,0.314c0.382,0,0.718-0.066,1.01-0.199c0.291-0.131,0.54-0.312,0.749-0.545
		c0.209-0.232,0.373-0.502,0.491-0.811c0.118-0.311,0.195-0.643,0.232-0.996h1.663c-0.037,0.582-0.162,1.113-0.375,1.596
		s-0.502,0.896-0.866,1.246c-0.363,0.352-0.791,0.621-1.281,0.812s-1.032,0.287-1.623,0.287c-0.728,0-1.379-0.135-1.956-0.402
		c-0.578-0.27-1.066-0.635-1.466-1.098c-0.4-0.465-0.707-1.006-0.92-1.623c-0.214-0.619-0.321-1.277-0.321-1.977
		c0-0.691,0.107-1.345,0.321-1.964c0.214-0.618,0.521-1.159,0.92-1.623c0.4-0.463,0.889-0.831,1.466-1.104
		c0.577-0.273,1.229-0.409,1.956-0.409c0.546,0,1.059,0.075,1.542,0.225c0.481,0.15,0.906,0.368,1.274,0.654
		c0.368,0.287,0.666,0.634,0.894,1.043c0.227,0.409,0.368,0.877,0.422,1.405H80.41z"/>
	<path fill="#202633" d="M83.463,18.118h1.555v3.614h0.027c0.191-0.318,0.475-0.584,0.853-0.798c0.376-0.213,0.798-0.32,1.261-0.32
		c0.773,0,1.382,0.2,1.828,0.6c0.445,0.4,0.668,1,0.668,1.8v4.84H88.1v-4.431c-0.018-0.555-0.136-0.957-0.354-1.207
		c-0.218-0.25-0.559-0.375-1.023-0.375c-0.264,0-0.5,0.048-0.708,0.144c-0.21,0.095-0.387,0.227-0.532,0.395
		c-0.146,0.168-0.259,0.367-0.341,0.593c-0.082,0.228-0.123,0.468-0.123,0.722v4.16h-1.555V18.118z"/>
	<path fill="#202633" d="M92.504,24.73c0,0.273,0.038,0.537,0.116,0.791s0.193,0.477,0.348,0.668
		c0.154,0.191,0.35,0.344,0.586,0.457c0.236,0.113,0.518,0.17,0.845,0.17c0.455,0,0.82-0.098,1.098-0.293s0.484-0.488,0.62-0.879
		h1.473c-0.082,0.381-0.222,0.723-0.422,1.021c-0.201,0.301-0.441,0.553-0.723,0.758s-0.598,0.359-0.948,0.463
		c-0.35,0.105-0.716,0.156-1.098,0.156c-0.554,0-1.045-0.09-1.473-0.271s-0.789-0.436-1.084-0.764
		c-0.296-0.326-0.519-0.719-0.668-1.172c-0.15-0.455-0.225-0.955-0.225-1.5c0-0.5,0.08-0.975,0.238-1.426
		c0.159-0.45,0.386-0.845,0.682-1.186c0.295-0.341,0.652-0.612,1.07-0.812c0.418-0.2,0.891-0.3,1.418-0.3
		c0.555,0,1.052,0.116,1.493,0.348c0.441,0.231,0.807,0.539,1.098,0.92c0.291,0.382,0.502,0.821,0.634,1.316
		c0.132,0.495,0.166,1.006,0.103,1.533H92.504z M96.131,23.708c-0.018-0.245-0.071-0.482-0.157-0.709
		c-0.087-0.227-0.205-0.425-0.354-0.594c-0.15-0.168-0.333-0.304-0.545-0.409c-0.214-0.104-0.453-0.156-0.716-0.156
		c-0.272,0-0.521,0.048-0.743,0.144c-0.223,0.095-0.414,0.227-0.573,0.395c-0.159,0.168-0.286,0.367-0.381,0.593
		c-0.096,0.228-0.148,0.473-0.157,0.737H96.131z"/>
	<path fill="#202633" d="M103.631,23.163c-0.064-0.436-0.239-0.765-0.525-0.988c-0.287-0.223-0.648-0.334-1.084-0.334
		c-0.201,0-0.414,0.034-0.641,0.102c-0.228,0.068-0.437,0.195-0.627,0.382c-0.191,0.187-0.351,0.445-0.478,0.777
		c-0.126,0.333-0.19,0.766-0.19,1.303c0,0.291,0.034,0.58,0.102,0.871s0.178,0.551,0.328,0.777c0.15,0.229,0.343,0.412,0.579,0.553
		c0.237,0.141,0.523,0.211,0.859,0.211c0.455,0,0.83-0.141,1.125-0.422c0.295-0.281,0.479-0.678,0.552-1.186h1.554
		c-0.146,0.918-0.493,1.619-1.043,2.105s-1.28,0.729-2.188,0.729c-0.555,0-1.043-0.092-1.466-0.277
		c-0.422-0.188-0.779-0.441-1.07-0.764c-0.291-0.324-0.512-0.707-0.661-1.152c-0.15-0.445-0.225-0.928-0.225-1.445
		c0-0.527,0.072-1.023,0.217-1.487c0.146-0.463,0.364-0.866,0.655-1.206c0.291-0.341,0.653-0.609,1.084-0.805
		c0.432-0.195,0.939-0.292,1.521-0.292c0.409,0,0.797,0.052,1.166,0.156c0.367,0.105,0.695,0.262,0.981,0.471
		c0.287,0.209,0.521,0.473,0.703,0.791c0.181,0.318,0.291,0.695,0.327,1.131H103.631z"/>
	<path fill="#202633" d="M106.494,18.118h1.554v5.536l2.809-2.85h1.909l-2.7,2.591l2.958,4.458h-1.895l-2.155-3.422l-0.927,0.898
		v2.523h-1.554V18.118z"/>
	<path fill="#202633" d="M120.798,28.043c-0.564,0-1.066-0.092-1.507-0.277c-0.44-0.188-0.813-0.443-1.118-0.771
		c-0.305-0.328-0.537-0.719-0.695-1.172c-0.159-0.455-0.239-0.955-0.239-1.502c0-0.535,0.08-1.03,0.239-1.485
		c0.159-0.454,0.39-0.845,0.695-1.172c0.304-0.328,0.677-0.584,1.118-0.771c0.441-0.186,0.943-0.279,1.507-0.279
		c0.563,0,1.065,0.093,1.506,0.279c0.44,0.186,0.813,0.443,1.118,0.771c0.305,0.327,0.536,0.718,0.695,1.172
		c0.159,0.455,0.239,0.95,0.239,1.485c0,0.547-0.08,1.047-0.239,1.502c-0.159,0.453-0.391,0.844-0.695,1.172
		s-0.678,0.584-1.118,0.771C121.864,27.951,121.361,28.043,120.798,28.043z M120.798,26.816c0.345,0,0.645-0.072,0.899-0.217
		c0.255-0.146,0.463-0.338,0.627-0.574c0.163-0.234,0.284-0.502,0.361-0.797c0.077-0.295,0.116-0.598,0.116-0.908
		c0-0.299-0.039-0.599-0.116-0.898c-0.078-0.301-0.198-0.566-0.361-0.798c-0.164-0.232-0.373-0.421-0.627-0.566
		c-0.254-0.146-0.554-0.218-0.899-0.218c-0.346,0-0.646,0.073-0.9,0.218c-0.255,0.145-0.464,0.334-0.627,0.566
		c-0.164,0.232-0.285,0.497-0.362,0.798c-0.077,0.299-0.116,0.599-0.116,0.898c0,0.311,0.039,0.613,0.116,0.908
		s0.198,0.562,0.362,0.797c0.163,0.236,0.373,0.428,0.627,0.574C120.152,26.744,120.453,26.816,120.798,26.816z"/>
	<path fill="#202633" d="M131.843,27.854h-1.527v-0.982h-0.027c-0.191,0.355-0.475,0.639-0.853,0.854
		c-0.377,0.213-0.762,0.318-1.152,0.318c-0.928,0-1.598-0.229-2.012-0.688c-0.413-0.459-0.62-1.152-0.62-2.08v-4.472h1.554v4.323
		c0,0.617,0.118,1.053,0.355,1.309c0.236,0.254,0.568,0.381,0.995,0.381c0.328,0,0.601-0.049,0.818-0.15
		c0.218-0.1,0.396-0.232,0.532-0.4c0.137-0.17,0.234-0.371,0.294-0.607c0.059-0.236,0.088-0.49,0.088-0.764v-4.091h1.554V27.854z"/>
	<path fill="#202633" d="M132.77,20.804h1.172V18.69h1.555v2.113h1.405v1.159h-1.405v3.764c0,0.162,0.007,0.305,0.021,0.422
		c0.014,0.119,0.045,0.219,0.096,0.301c0.05,0.082,0.125,0.143,0.225,0.184c0.1,0.041,0.236,0.062,0.409,0.062
		c0.109,0,0.218-0.004,0.327-0.008c0.109-0.004,0.218-0.021,0.328-0.049v1.201c-0.173,0.018-0.341,0.035-0.504,0.055
		c-0.164,0.018-0.333,0.027-0.504,0.027c-0.409,0-0.739-0.039-0.989-0.115c-0.25-0.078-0.445-0.191-0.586-0.342
		c-0.141-0.15-0.236-0.34-0.286-0.566c-0.05-0.227-0.08-0.486-0.089-0.777v-4.158h-1.172V20.804z"/>
	<path fill="#202633" d="M141.169,20.804h1.65l1.377,5.263h0.027l1.322-5.263h1.568l1.268,5.263h0.027l1.432-5.263h1.581
		l-2.208,7.05h-1.596l-1.309-5.236h-0.027l-1.295,5.236h-1.636L141.169,20.804z"/>
	<path fill="#202633" d="M152.46,18.118h1.554v1.473h-1.554V18.118z M152.46,20.804h1.554v7.05h-1.554V20.804z"/>
	<path fill="#202633" d="M154.996,20.804h1.172V18.69h1.555v2.113h1.404v1.159h-1.404v3.764c0,0.162,0.007,0.305,0.02,0.422
		c0.014,0.119,0.045,0.219,0.096,0.301c0.05,0.082,0.125,0.143,0.226,0.184c0.099,0.041,0.236,0.062,0.409,0.062
		c0.109,0,0.218-0.004,0.327-0.008c0.109-0.004,0.218-0.021,0.327-0.049v1.201c-0.172,0.018-0.34,0.035-0.504,0.055
		c-0.164,0.018-0.332,0.027-0.504,0.027c-0.409,0-0.739-0.039-0.989-0.115c-0.25-0.078-0.445-0.191-0.586-0.342
		c-0.141-0.15-0.236-0.34-0.286-0.566c-0.05-0.227-0.08-0.486-0.089-0.777v-4.158h-1.172V20.804z"/>
	<path fill="#202633" d="M160.246,18.118h1.555v3.614h0.027c0.191-0.318,0.475-0.584,0.852-0.798c0.377-0.213,0.797-0.32,1.261-0.32
		c0.772,0,1.381,0.2,1.828,0.6c0.445,0.4,0.668,1,0.668,1.8v4.84h-1.555v-4.431c-0.018-0.555-0.136-0.957-0.354-1.207
		c-0.218-0.25-0.559-0.375-1.023-0.375c-0.264,0-0.5,0.048-0.709,0.144c-0.209,0.095-0.386,0.227-0.532,0.395
		c-0.145,0.168-0.259,0.367-0.341,0.593c-0.082,0.228-0.123,0.468-0.123,0.722v4.16h-1.555V18.118z"/>
</g>
</svg>
